<svg width="73" height="23" viewBox="0 0 73 23" fill="none" xmlns="http://www.w3.org/2000/svg">
<path d="M13.9648 14.6123C13.9648 14.2822 13.8633 14.0622 13.6602 13.9521C13.4655 13.8421 13.1777 13.7871 12.7969 13.7871H6.90625V12.873H12.7969C14.1849 12.873 14.8789 13.4528 14.8789 14.6123C14.8789 15.264 14.6885 15.7337 14.3076 16.0215C13.9268 16.3092 13.4232 16.4531 12.7969 16.4531H6.90625V15.5391H12.7969C13.5755 15.5391 13.9648 15.2301 13.9648 14.6123ZM6.39844 21.9375H5.48438V6.39844H12.7969C13.3724 6.39844 13.8633 6.57617 14.2695 6.93164C14.6758 7.27865 14.8789 7.71452 14.8789 8.23926C14.8789 8.93327 14.6885 9.43685 14.3076 9.75C13.9268 10.0547 13.4232 10.207 12.7969 10.207H6.90625V9.29297H12.7969C13.5755 9.29297 13.9648 8.94173 13.9648 8.23926C13.9648 7.9515 13.8548 7.72721 13.6348 7.56641C13.4147 7.39714 13.1354 7.3125 12.7969 7.3125H6.39844V21.9375ZM6.90625 11.1211H12.7969C13.6348 11.1211 14.3415 10.8714 14.917 10.3721C15.501 9.86426 15.793 9.15332 15.793 8.23926C15.793 7.50293 15.4883 6.8597 14.8789 6.30957C14.278 5.75944 13.584 5.48438 12.7969 5.48438H4.57031V21.9375H3.65625V4.57031H12.7969C13.8379 4.57031 14.7477 4.93848 15.5264 5.6748C16.3135 6.40267 16.707 7.25749 16.707 8.23926C16.707 9.00944 16.5251 9.68229 16.1611 10.2578C15.8057 10.8333 15.3232 11.2777 14.7139 11.5908C16.0426 12.0648 16.707 13.0296 16.707 14.4854C16.707 15.6364 16.3262 16.5589 15.5645 17.2529C14.8027 17.9385 13.8802 18.2812 12.7969 18.2812H6.90625V17.3672H12.7969C13.6348 17.3672 14.3415 17.1175 14.917 16.6182C15.501 16.1104 15.793 15.3994 15.793 14.4854C15.793 13.8675 15.5729 13.3216 15.1328 12.8477C14.6927 12.3737 14.0452 12.0986 13.1904 12.0225C13.1058 12.0309 12.9746 12.0352 12.7969 12.0352H6.90625V11.1211ZM18.5352 8.23926C18.5352 9.42415 18.1162 10.4948 17.2783 11.4512C18.1162 12.3822 18.5352 13.3936 18.5352 14.4854C18.5352 15.5433 18.2686 16.5081 17.7354 17.3799C17.2106 18.2432 16.5081 18.916 15.6279 19.3984C14.7562 19.8724 13.8125 20.1094 12.7969 20.1094H6.90625V19.1953H12.7969C14.1172 19.1953 15.2513 18.7552 16.1992 17.875C17.1471 16.9863 17.6211 15.8564 17.6211 14.4854C17.6211 13.9945 17.4941 13.4528 17.2402 12.8604C16.9948 12.2594 16.652 11.8024 16.2119 11.4893C17.1514 10.609 17.6211 9.52572 17.6211 8.23926C17.6211 7.00358 17.1387 5.93294 16.1738 5.02734C15.209 4.11328 14.0833 3.65625 12.7969 3.65625H2.74219V21.9375H1.82812V2.74219H12.7969C13.804 2.74219 14.7477 2.99186 15.6279 3.49121C16.5166 3.9821 17.2233 4.65495 17.748 5.50977C18.2728 6.35612 18.5352 7.26595 18.5352 8.23926ZM18.3193 11.502C19.0726 10.4948 19.4492 9.40723 19.4492 8.23926C19.4492 7.09668 19.1445 6.03451 18.5352 5.05273C17.9342 4.0625 17.1217 3.27962 16.0977 2.7041C15.0736 2.12012 13.9733 1.82812 12.7969 1.82812H0.914062V21.9375H0V0.914062H12.7969C14.1341 0.914062 15.3825 1.24414 16.542 1.9043C17.71 2.56445 18.6367 3.46159 19.3223 4.5957C20.0163 5.72135 20.3633 6.93587 20.3633 8.23926C20.3633 9.4834 20.012 10.5752 19.3096 11.5146C20.012 12.488 20.3633 13.4782 20.3633 14.4854C20.3633 15.6195 20.1602 16.6605 19.7539 17.6084C19.3477 18.5479 18.7975 19.3307 18.1035 19.957C17.418 20.5833 16.6182 21.07 15.7041 21.417C14.79 21.764 13.821 21.9375 12.7969 21.9375H6.90625V21.0234H12.7969C13.6855 21.0234 14.5361 20.8584 15.3486 20.5283C16.1611 20.1898 16.8678 19.7327 17.4688 19.1572C18.0697 18.5817 18.5479 17.8877 18.9033 17.0752C19.2673 16.2627 19.4492 15.3994 19.4492 14.4854C19.4492 14.0791 19.3519 13.5924 19.1572 13.0254C18.971 12.4499 18.6917 11.9421 18.3193 11.502Z" fill="black"/>
<path d="M33.2344 7.87109C32.2526 8.85286 31.7617 10.0378 31.7617 11.4258C31.7617 12.8138 32.2526 13.9987 33.2344 14.9805C34.2161 15.9622 35.401 16.4531 36.7891 16.4531C38.1771 16.4531 39.362 15.9622 40.3438 14.9805C41.3255 13.9987 41.8164 12.8138 41.8164 11.4258C41.8164 10.0378 41.3255 8.85286 40.3438 7.87109C39.362 6.88932 38.1771 6.39844 36.7891 6.39844C35.401 6.39844 34.2161 6.88932 33.2344 7.87109ZM31.3174 13.7363C31.0042 13 30.8477 12.2298 30.8477 11.4258C30.8477 10.6217 31.0042 9.85579 31.3174 9.12793C31.6305 8.3916 32.0537 7.75684 32.5869 7.22363C33.1201 6.69043 33.7507 6.26725 34.4785 5.9541C35.2148 5.64095 35.985 5.48438 36.7891 5.48438C37.5931 5.48438 38.359 5.64095 39.0869 5.9541C39.8232 6.26725 40.458 6.69043 40.9912 7.22363C41.5244 7.75684 41.9476 8.3916 42.2607 9.12793C42.5739 9.85579 42.7305 10.6217 42.7305 11.4258C42.7305 12.2298 42.5739 13 42.2607 13.7363C41.9476 14.4642 41.5244 15.0947 40.9912 15.6279C40.458 16.1611 39.8232 16.5843 39.0869 16.8975C38.359 17.2106 37.5931 17.3672 36.7891 17.3672C35.985 17.3672 35.2148 17.2106 34.4785 16.8975C33.7507 16.5843 33.1201 16.1611 32.5869 15.6279C32.0537 15.0947 31.6305 14.4642 31.3174 13.7363ZM30.8477 7.98535C30.2383 9.03483 29.9336 10.1816 29.9336 11.4258C29.9336 12.6699 30.2383 13.8167 30.8477 14.8662C31.4655 15.9157 32.2992 16.7493 33.3486 17.3672C34.3981 17.9766 35.5449 18.2812 36.7891 18.2812C38.0332 18.2812 39.18 17.9766 40.2295 17.3672C41.279 16.7493 42.1084 15.9157 42.7178 14.8662C43.3356 13.8167 43.6445 12.6699 43.6445 11.4258C43.6445 10.1816 43.3356 9.03483 42.7178 7.98535C42.1084 6.93587 41.279 6.10645 40.2295 5.49707C39.18 4.87923 38.0332 4.57031 36.7891 4.57031C35.5449 4.57031 34.3981 4.87923 33.3486 5.49707C32.2992 6.10645 31.4655 6.93587 30.8477 7.98535ZM30.0605 15.3232C29.3665 14.1299 29.0195 12.8307 29.0195 11.4258C29.0195 10.0208 29.3665 8.72168 30.0605 7.52832C30.7546 6.33496 31.6982 5.39128 32.8916 4.69727C34.085 4.00326 35.3841 3.65625 36.7891 3.65625C38.194 3.65625 39.4932 4.00326 40.6865 4.69727C41.8799 5.39128 42.8236 6.33496 43.5176 7.52832C44.2116 8.72168 44.5586 10.0208 44.5586 11.4258C44.5586 12.8307 44.2116 14.1299 43.5176 15.3232C42.8236 16.5166 41.8799 17.4603 40.6865 18.1543C39.4932 18.8483 38.194 19.1953 36.7891 19.1953C35.3841 19.1953 34.085 18.8483 32.8916 18.1543C31.6982 17.4603 30.7546 16.5166 30.0605 15.3232ZM28.791 8.04883C28.334 9.1237 28.1055 10.2493 28.1055 11.4258C28.1055 12.6022 28.334 13.7279 28.791 14.8027C29.248 15.8776 29.8617 16.8044 30.6318 17.583C31.4105 18.3532 32.3372 18.9668 33.4121 19.4238C34.487 19.8809 35.6126 20.1094 36.7891 20.1094C37.9655 20.1094 39.0911 19.8809 40.166 19.4238C41.2409 18.9668 42.1634 18.3532 42.9336 17.583C43.7122 16.8044 44.3301 15.8776 44.7871 14.8027C45.2441 13.7279 45.4727 12.6022 45.4727 11.4258C45.4727 10.2493 45.2441 9.1237 44.7871 8.04883C44.3301 6.97396 43.7122 6.05143 42.9336 5.28125C42.1634 4.5026 41.2409 3.88477 40.166 3.42773C39.0911 2.9707 37.9655 2.74219 36.7891 2.74219C35.6126 2.74219 34.487 2.9707 33.4121 3.42773C32.3372 3.88477 31.4105 4.5026 30.6318 5.28125C29.8617 6.05143 29.248 6.97396 28.791 8.04883ZM28.4736 16.2373C27.6188 14.7646 27.1914 13.1608 27.1914 11.4258C27.1914 9.69076 27.6188 8.08691 28.4736 6.61426C29.3369 5.1416 30.5049 3.97786 31.9775 3.12305C33.4502 2.25977 35.054 1.82812 36.7891 1.82812C38.5241 1.82812 40.1279 2.25977 41.6006 3.12305C43.0732 3.97786 44.237 5.1416 45.0918 6.61426C45.9551 8.08691 46.3867 9.69076 46.3867 11.4258C46.3867 13.1608 45.9551 14.7646 45.0918 16.2373C44.237 17.71 43.0732 18.8779 41.6006 19.7412C40.1279 20.596 38.5241 21.0234 36.7891 21.0234C35.054 21.0234 33.4502 20.596 31.9775 19.7412C30.5049 18.8779 29.3369 17.71 28.4736 16.2373ZM27.1025 7.35059C26.5524 8.64551 26.2773 10.0039 26.2773 11.4258C26.2773 12.8477 26.5524 14.2103 27.1025 15.5137C27.6611 16.8086 28.4102 17.9258 29.3496 18.8652C30.2891 19.8047 31.4062 20.5537 32.7012 21.1123C34.0046 21.6624 35.3672 21.9375 36.7891 21.9375C38.2109 21.9375 39.5693 21.6624 40.8643 21.1123C42.1676 20.5537 43.2891 19.8047 44.2285 18.8652C45.168 17.9258 45.9128 16.8086 46.4629 15.5137C47.0215 14.2103 47.3008 12.8477 47.3008 11.4258C47.3008 10.0039 47.0215 8.64551 46.4629 7.35059C45.9128 6.0472 45.168 4.92578 44.2285 3.98633C43.2891 3.04688 42.1676 2.30208 40.8643 1.75195C39.5693 1.19336 38.2109 0.914062 36.7891 0.914062C35.3672 0.914062 34.0046 1.19336 32.7012 1.75195C31.4062 2.30208 30.2891 3.04688 29.3496 3.98633C28.4102 4.92578 27.6611 6.0472 27.1025 7.35059ZM26.2646 15.8691C25.6637 14.4557 25.3633 12.9746 25.3633 11.4258C25.3633 9.87695 25.6637 8.40007 26.2646 6.99512C26.874 5.58171 27.6865 4.36719 28.7021 3.35156C29.7262 2.32747 30.9408 1.51497 32.3457 0.914062C33.7591 0.304688 35.2402 0 36.7891 0C38.3379 0 39.8148 0.304688 41.2197 0.914062C42.6331 1.51497 43.8477 2.32747 44.8633 3.35156C45.8874 4.36719 46.6999 5.58171 47.3008 6.99512C47.9102 8.40007 48.2148 9.87695 48.2148 11.4258C48.2148 12.9746 47.9102 14.4557 47.3008 15.8691C46.6999 17.2741 45.8874 18.4886 44.8633 19.5127C43.8477 20.5283 42.6331 21.3366 41.2197 21.9375C39.8148 22.5469 38.3379 22.8516 36.7891 22.8516C35.2402 22.8516 33.7591 22.5469 32.3457 21.9375C30.9408 21.3366 29.7262 20.5283 28.7021 19.5127C27.6865 18.4886 26.874 17.2741 26.2646 15.8691Z" fill="black"/>
<path d="M57.375 10.5752L56.8291 11.4385L50.2148 0.914062H51.2939L57.375 10.5752ZM61.8818 17.4434L62.415 16.5801L65.792 21.9375H64.7129L61.8818 17.4434ZM58.4541 8.87402L57.9082 9.72461L52.373 0.914062H53.4395L58.4541 8.87402ZM62.9609 15.7295L63.4941 14.8662L67.9502 21.9375H66.8711L62.9609 15.7295ZM59.5332 7.14746L59 7.99805L54.5312 0.914062H55.6104L59.5332 7.14746ZM64.0527 14.0029L64.5859 13.1396L70.1211 21.9375H69.042L64.0527 14.0029ZM60.6123 5.43359L60.0791 6.29688L56.6895 0.914062H57.7686L60.6123 5.43359ZM65.1191 12.2891L65.6523 11.4258L72.2793 21.9375H71.2002L65.1191 12.2891ZM70.5654 0.914062H71.6445L58.416 21.9375H57.3369L70.5654 0.914062ZM68.4199 0.914062H69.4863L56.2578 21.9375H55.1787L68.4199 0.914062ZM66.249 0.914062H67.3281L54.0869 21.9375H53.0078L66.249 0.914062ZM64.0908 0.914062H65.1699L51.9287 21.9375H50.8496L64.0908 0.914062Z" fill="black"/>
</svg>
