<svg width="107" height="23" viewBox="0 0 107 23" fill="none" xmlns="http://www.w3.org/2000/svg">
<path d="M15.1328 14.2695L16.0469 12.543V21.9375H15.1328V14.2695ZM16.9609 10.7656L17.875 9.03906V21.9375H16.9609V10.7656ZM18.7891 7.3125L19.7031 5.57324V21.9375H18.7891V7.3125ZM12.6572 13.8379L12.1367 12.8857L18.4336 0.914062H19.4619L12.6572 13.8379ZM11.6035 11.8447L11.0703 10.8799L16.3516 0.914062H17.3926L11.6035 11.8447ZM5.48438 12.6445L6.39844 14.3711V21.9375H5.48438V12.6445ZM3.65625 9.16602L4.57031 10.8926V21.9375H3.65625V9.16602ZM1.82812 5.6875L2.74219 7.42676V21.9375H1.82812V5.6875ZM9.2168 16.4531H8.18848L0.914062 2.65332V21.9375H0V0.914062H1.02832L9.2168 16.4531ZM11.2861 16.4531H10.2451L2.06934 0.914062H3.11035L11.2861 16.4531ZM20.6172 2.65332L13.3428 16.4531H12.3018L4.13867 0.914062H5.16699L12.835 15.4883L20.4902 0.914062H21.5312V21.9375H20.6172V2.65332Z" fill="black"/>
<path d="M41.4609 12.2383V0.457031H42.375V12.2383C42.375 13.5247 41.8672 14.625 40.8516 15.5391C39.8359 16.4531 38.6172 16.9102 37.1953 16.9102C35.7734 16.9102 34.5547 16.4531 33.5391 15.5391C32.5234 14.625 32.0156 13.5247 32.0156 12.2383V0.457031H32.9297V12.2383C32.9297 13.2708 33.3444 14.1553 34.1738 14.8916C35.0117 15.6279 36.0189 15.9961 37.1953 15.9961C38.3717 15.9961 39.3747 15.6279 40.2041 14.8916C41.042 14.1553 41.4609 13.2708 41.4609 12.2383ZM43.2891 12.2383V0.457031H44.2031V12.2383C44.2031 13.1185 44.0169 13.9606 43.6445 14.7646C43.2721 15.5602 42.7728 16.25 42.1465 16.834C41.5202 17.418 40.7754 17.8835 39.9121 18.2305C39.0488 18.569 38.1432 18.7383 37.1953 18.7383C36.2474 18.7383 35.3418 18.569 34.4785 18.2305C33.6152 17.8835 32.8704 17.418 32.2441 16.834C31.6178 16.25 31.1185 15.5602 30.7461 14.7646C30.3737 13.9606 30.1875 13.1185 30.1875 12.2383V0.457031H31.1016V12.2383C31.1016 13.2454 31.3724 14.1807 31.9141 15.0439C32.4642 15.8988 33.2048 16.5758 34.1357 17.0752C35.0752 17.5745 36.0951 17.8242 37.1953 17.8242C38.2956 17.8242 39.3112 17.5745 40.2422 17.0752C41.1816 16.5758 41.9222 15.8988 42.4639 15.0439C43.014 14.1807 43.2891 13.2454 43.2891 12.2383ZM45.1172 12.2383V0.457031H46.0312V12.2383C46.0312 13.3639 45.7943 14.443 45.3203 15.4756C44.8548 16.4997 44.2285 17.3841 43.4414 18.1289C42.6543 18.8737 41.7148 19.4661 40.623 19.9062C39.5312 20.3464 38.3887 20.5664 37.1953 20.5664C36.002 20.5664 34.8594 20.3464 33.7676 19.9062C32.6758 19.4661 31.7363 18.8737 30.9492 18.1289C30.1621 17.3841 29.5316 16.4997 29.0576 15.4756C28.5921 14.443 28.3594 13.3639 28.3594 12.2383V0.457031H29.2734V12.2383C29.2734 13.5755 29.6289 14.8154 30.3398 15.958C31.0508 17.0921 32.0114 17.9935 33.2217 18.6621C34.4404 19.3223 35.765 19.6523 37.1953 19.6523C38.6257 19.6523 39.946 19.3223 41.1562 18.6621C42.375 17.9935 43.3398 17.0921 44.0508 15.958C44.7617 14.8154 45.1172 13.5755 45.1172 12.2383ZM46.9453 12.2383V0.457031H47.8594V12.2383C47.8594 14.0664 47.3812 15.7633 46.4248 17.3291C45.4684 18.8864 44.1693 20.1221 42.5273 21.0361C40.8939 21.9417 39.1165 22.3945 37.1953 22.3945C35.2741 22.3945 33.4925 21.9417 31.8506 21.0361C30.2171 20.1221 28.9222 18.8864 27.9658 17.3291C27.0094 15.7633 26.5312 14.0664 26.5312 12.2383V0.457031H27.4453V12.2383C27.4453 13.4824 27.7035 14.6758 28.2197 15.8184C28.736 16.9609 29.43 17.9469 30.3018 18.7764C31.1735 19.5973 32.2103 20.2533 33.4121 20.7441C34.6224 21.235 35.8835 21.4805 37.1953 21.4805C38.5072 21.4805 39.764 21.235 40.9658 20.7441C42.1761 20.2533 43.2171 19.5973 44.0889 18.7764C44.9606 17.9469 45.6546 16.9609 46.1709 15.8184C46.6872 14.6758 46.9453 13.4824 46.9453 12.2383Z" fill="black"/>
<path d="M62.0381 9.14062H60.502C59.8503 9.14062 59.3805 8.97559 59.0928 8.64551C58.805 8.30697 58.6611 7.86263 58.6611 7.3125C58.6611 6.09375 59.571 5.48438 61.3906 5.48438C63.1003 5.48438 64.3867 5.73828 65.25 6.24609L64.5137 6.80469C63.9212 6.53385 62.8802 6.39844 61.3906 6.39844C60.6628 6.39844 60.1719 6.47884 59.918 6.63965C59.6725 6.80046 59.5498 7.02474 59.5498 7.3125C59.5498 7.60026 59.6175 7.82454 59.7529 7.98535C59.8883 8.14616 60.138 8.22656 60.502 8.22656H62.0762C63.2188 8.22656 64.2471 8.42122 65.1611 8.81055C66.0837 9.19987 66.8411 9.73307 67.4336 10.4102C68.026 11.0788 68.4788 11.8532 68.792 12.7334C69.1051 13.6051 69.2617 14.5404 69.2617 15.5391C69.2617 16.3516 69.1475 17.1217 68.9189 17.8496C68.6904 18.5775 68.3434 19.2461 67.8779 19.8555C67.4209 20.4648 66.8665 20.9938 66.2148 21.4424C65.5716 21.8825 64.8014 22.2253 63.9043 22.4707C63.0156 22.7246 62.0508 22.8516 61.0098 22.8516C59.3763 22.8516 57.8444 22.6019 56.4141 22.1025C54.9922 21.6117 53.8073 20.9219 52.8594 20.0332L53.5957 19.4873C54.459 20.266 55.5381 20.8711 56.833 21.3027C58.1364 21.7259 59.5286 21.9375 61.0098 21.9375C62.1693 21.9375 63.2145 21.7725 64.1455 21.4424C65.085 21.1038 65.8551 20.6426 66.4561 20.0586C67.0654 19.4746 67.5309 18.7975 67.8525 18.0273C68.1826 17.2572 68.3477 16.4277 68.3477 15.5391C68.3477 14.3626 68.1107 13.3005 67.6367 12.3525C67.1628 11.3962 66.4391 10.6217 65.4658 10.0293C64.501 9.43685 63.3584 9.14062 62.0381 9.14062ZM60.502 10.0547H61.9492C63.6673 10.0547 65.0088 10.5794 65.9736 11.6289C66.9469 12.6784 67.4336 13.9818 67.4336 15.5391C67.4336 17.1217 66.8708 18.4336 65.7451 19.4746C64.6195 20.5072 63.041 21.0234 61.0098 21.0234C59.6556 21.0234 58.3903 20.8372 57.2139 20.4648C56.0374 20.0924 55.0599 19.5677 54.2812 18.8906L54.9922 18.3193C55.6862 18.8864 56.5579 19.3265 57.6074 19.6396C58.6654 19.9528 59.7995 20.1094 61.0098 20.1094C62.7956 20.1094 64.1582 19.682 65.0977 18.8271C66.0456 17.9723 66.5195 16.8763 66.5195 15.5391C66.5195 14.2188 66.1217 13.127 65.3262 12.2637C64.5391 11.4004 63.4092 10.9688 61.9365 10.9688H60.502C59.2663 10.9688 58.3395 10.6302 57.7217 9.95312C57.1038 9.27604 56.7949 8.39583 56.7949 7.3125C56.7949 6.22917 57.1758 5.34896 57.9375 4.67188C58.7077 3.99479 59.8587 3.65625 61.3906 3.65625C62.4655 3.65625 63.4642 3.7832 64.3867 4.03711C65.3092 4.28255 66.071 4.63802 66.6719 5.10352L65.9482 5.66211C64.8903 4.93424 63.3711 4.57031 61.3906 4.57031C60.1126 4.57031 59.1774 4.82422 58.585 5.33203C58.001 5.83138 57.709 6.49154 57.709 7.3125C57.709 8.14193 57.9248 8.80632 58.3564 9.30566C58.7965 9.80501 59.5117 10.0547 60.502 10.0547ZM60.502 11.8828H61.8984C63.1341 11.8828 64.0609 12.2256 64.6787 12.9111C65.2965 13.5967 65.6055 14.4727 65.6055 15.5391C65.6055 16.6224 65.2204 17.5026 64.4502 18.1797C63.6885 18.8568 62.5417 19.1953 61.0098 19.1953C59.9349 19.1953 58.932 19.0726 58.001 18.8271C57.0785 18.5732 56.3167 18.2135 55.7158 17.748L56.4395 17.1895C57.4974 17.9173 59.0208 18.2812 61.0098 18.2812C62.2878 18.2812 63.2188 18.0316 63.8027 17.5322C64.3952 17.0244 64.6914 16.36 64.6914 15.5391C64.6914 14.7181 64.4714 14.0579 64.0312 13.5586C63.5911 13.0508 62.876 12.7969 61.8857 12.7969H60.502C58.7669 12.7969 57.4085 12.2806 56.4268 11.248C55.4535 10.207 54.9668 8.89518 54.9668 7.3125C54.9668 5.72982 55.5296 4.4222 56.6553 3.38965C57.7809 2.34863 59.3594 1.82812 61.3906 1.82812C62.7448 1.82812 64.0059 2.01432 65.1738 2.38672C66.3503 2.75911 67.3278 3.28385 68.1064 3.96094L67.3955 4.53223C66.7015 3.96517 65.8298 3.52507 64.7803 3.21191C63.7308 2.89876 62.6009 2.74219 61.3906 2.74219C59.6048 2.74219 58.238 3.1696 57.29 4.02441C56.3506 4.87923 55.8809 5.97526 55.8809 7.3125C55.8809 8.64128 56.2786 9.7373 57.0742 10.6006C57.8698 11.4554 59.0124 11.8828 60.502 11.8828ZM60.502 13.7109H61.8984C62.5501 13.7109 63.0199 13.8802 63.3076 14.2188C63.5954 14.5573 63.7393 14.9974 63.7393 15.5391C63.7393 16.7578 62.8294 17.3672 61.0098 17.3672C59.2917 17.3672 58.001 17.1133 57.1377 16.6055L57.874 16.0469C58.4665 16.3177 59.5117 16.4531 61.0098 16.4531C61.7376 16.4531 62.2243 16.3727 62.4697 16.2119C62.7236 16.0511 62.8506 15.8268 62.8506 15.5391C62.8506 15.2598 62.7786 15.0397 62.6348 14.8789C62.4993 14.7096 62.2454 14.625 61.873 14.625H60.502C59.334 14.625 58.276 14.4346 57.3281 14.0537C56.3887 13.6729 55.6143 13.1481 55.0049 12.4795C54.404 11.8109 53.9427 11.0365 53.6211 10.1562C53.2995 9.27604 53.1387 8.32812 53.1387 7.3125C53.1387 6.5 53.2529 5.72982 53.4814 5.00195C53.71 4.27409 54.0527 3.60547 54.5098 2.99609C54.9753 2.38672 55.5296 1.86198 56.1729 1.42188C56.8245 0.973307 57.5947 0.626302 58.4834 0.380859C59.3805 0.126953 60.3496 0 61.3906 0C63.0241 0 64.5518 0.249674 65.9736 0.749023C67.3955 1.23991 68.5804 1.92969 69.5283 2.81836L68.792 3.36426C67.9287 2.58561 66.8496 1.9847 65.5547 1.56152C64.2598 1.12988 62.8717 0.914062 61.3906 0.914062C60.2311 0.914062 59.1816 1.08333 58.2422 1.42188C57.3112 1.75195 56.541 2.20898 55.9316 2.79297C55.3307 3.37695 54.8652 4.05404 54.5352 4.82422C54.2135 5.5944 54.0527 6.42383 54.0527 7.3125C54.0527 8.50586 54.2939 9.58073 54.7764 10.5371C55.2588 11.4935 55.9951 12.2637 56.9854 12.8477C57.9756 13.4232 59.1478 13.7109 60.502 13.7109Z" fill="black"/>
<path d="M80.0127 0.914062H80.9268V21.9375H80.0127V0.914062ZM78.1846 0.914062H79.0986V21.9375H78.1846V0.914062ZM76.3564 0.914062H77.2705V21.9375H76.3564V0.914062ZM74.5283 0.914062H75.4424V21.9375H74.5283V0.914062Z" fill="black"/>
<path d="M102.266 8.09961L101.517 8.59473C101.06 7.91764 100.463 7.38444 99.7266 6.99512C98.9987 6.59733 98.2074 6.39844 97.3525 6.39844C95.9645 6.39844 94.7796 6.88932 93.7979 7.87109C92.8161 8.85286 92.3252 10.0378 92.3252 11.4258C92.3252 12.8138 92.8161 13.9987 93.7979 14.9805C94.7796 15.9622 95.9645 16.4531 97.3525 16.4531C98.2074 16.4531 98.9987 16.2542 99.7266 15.8564C100.463 15.4587 101.06 14.9212 101.517 14.2441L102.253 14.7773C101.711 15.5729 101.009 16.2035 100.146 16.6689C99.2822 17.1344 98.3512 17.3672 97.3525 17.3672C96.5485 17.3672 95.7783 17.2106 95.042 16.8975C94.3141 16.5843 93.6836 16.1611 93.1504 15.6279C92.6172 15.0947 92.194 14.4642 91.8809 13.7363C91.5677 13 91.4111 12.2298 91.4111 11.4258C91.4111 10.6217 91.5677 9.85579 91.8809 9.12793C92.194 8.3916 92.6172 7.75684 93.1504 7.22363C93.6836 6.69043 94.3141 6.26725 95.042 5.9541C95.7783 5.64095 96.5485 5.48438 97.3525 5.48438C98.3597 5.48438 99.2949 5.72135 100.158 6.19531C101.021 6.66081 101.724 7.29557 102.266 8.09961ZM103.776 7.05859L103.015 7.55371C102.388 6.63965 101.576 5.91602 100.577 5.38281C99.5869 4.84115 98.512 4.57031 97.3525 4.57031C96.1084 4.57031 94.9616 4.87923 93.9121 5.49707C92.8626 6.10645 92.029 6.93587 91.4111 7.98535C90.8018 9.03483 90.4971 10.1816 90.4971 11.4258C90.4971 12.6699 90.8018 13.8167 91.4111 14.8662C92.029 15.9157 92.8626 16.7493 93.9121 17.3672C94.9616 17.9766 96.1084 18.2812 97.3525 18.2812C98.512 18.2812 99.5911 18.0104 100.59 17.4688C101.589 16.9271 102.401 16.195 103.027 15.2725L103.776 15.793C103.065 16.8424 102.143 17.6719 101.009 18.2812C99.8831 18.8906 98.6644 19.1953 97.3525 19.1953C95.9476 19.1953 94.6484 18.8483 93.4551 18.1543C92.2617 17.4603 91.318 16.5166 90.624 15.3232C89.93 14.1299 89.583 12.8307 89.583 11.4258C89.583 10.0208 89.93 8.72168 90.624 7.52832C91.318 6.33496 92.2617 5.39128 93.4551 4.69727C94.6484 4.00326 95.9476 3.65625 97.3525 3.65625C98.6644 3.65625 99.8831 3.96094 101.009 4.57031C102.143 5.17969 103.065 6.00911 103.776 7.05859ZM105.3 6.04297L104.538 6.53809C103.743 5.37012 102.71 4.44759 101.44 3.77051C100.179 3.08496 98.8167 2.74219 97.3525 2.74219C96.1761 2.74219 95.0505 2.9707 93.9756 3.42773C92.9007 3.88477 91.974 4.5026 91.1953 5.28125C90.4251 6.05143 89.8115 6.97396 89.3545 8.04883C88.8975 9.1237 88.6689 10.2493 88.6689 11.4258C88.6689 12.6022 88.8975 13.7279 89.3545 14.8027C89.8115 15.8776 90.4251 16.8044 91.1953 17.583C91.974 18.3532 92.9007 18.9668 93.9756 19.4238C95.0505 19.8809 96.1761 20.1094 97.3525 20.1094C98.8252 20.1094 100.192 19.7666 101.453 19.0811C102.714 18.3955 103.743 17.4688 104.538 16.3008L105.274 16.8467C104.394 18.1331 103.256 19.153 101.859 19.9062C100.471 20.651 98.9691 21.0234 97.3525 21.0234C95.6175 21.0234 94.0137 20.596 92.541 19.7412C91.0684 18.8779 89.9004 17.71 89.0371 16.2373C88.1823 14.7646 87.7549 13.1608 87.7549 11.4258C87.7549 9.69076 88.1823 8.08691 89.0371 6.61426C89.9004 5.1416 91.0684 3.97786 92.541 3.12305C94.0137 2.25977 95.6175 1.82812 97.3525 1.82812C98.9775 1.82812 100.488 2.20898 101.885 2.9707C103.281 3.72396 104.42 4.74805 105.3 6.04297ZM106.798 5.00195L106.036 5.49707C105.071 4.08366 103.823 2.96647 102.291 2.14551C100.768 1.32454 99.1214 0.914062 97.3525 0.914062C95.9307 0.914062 94.568 1.19336 93.2646 1.75195C91.9697 2.30208 90.8525 3.04688 89.9131 3.98633C88.9736 4.92578 88.2246 6.0472 87.666 7.35059C87.1159 8.64551 86.8408 10.0039 86.8408 11.4258C86.8408 12.8477 87.1159 14.2103 87.666 15.5137C88.2246 16.8086 88.9736 17.9258 89.9131 18.8652C90.8525 19.8047 91.9697 20.5537 93.2646 21.1123C94.568 21.6624 95.9307 21.9375 97.3525 21.9375C99.1214 21.9375 100.772 21.5228 102.304 20.6934C103.836 19.8639 105.084 18.7425 106.049 17.3291L106.785 17.8877C105.736 19.4111 104.382 20.6214 102.723 21.5186C101.064 22.4072 99.2738 22.8516 97.3525 22.8516C95.8037 22.8516 94.3226 22.5469 92.9092 21.9375C91.5042 21.3366 90.2897 20.5283 89.2656 19.5127C88.25 18.4886 87.4375 17.2741 86.8281 15.8691C86.2272 14.4557 85.9268 12.9746 85.9268 11.4258C85.9268 9.87695 86.2272 8.40007 86.8281 6.99512C87.4375 5.58171 88.25 4.36719 89.2656 3.35156C90.2897 2.32747 91.5042 1.51497 92.9092 0.914062C94.3226 0.304688 95.8037 0 97.3525 0C99.2822 0 101.076 0.448568 102.735 1.3457C104.394 2.24284 105.748 3.46159 106.798 5.00195Z" fill="black"/>
</svg>
